<svg version="1.1" id="Layer_1" xmlns="http://www.w3.org/2000/svg" xmlns:xlink="http://www.w3.org/1999/xlink" x="0px" y="0px"
	 viewBox="0 0 311.8 311.8" style="enable-background:new 0 0 311.8 311.8;" xml:space="preserve">
<g>
	<path fill="#fff" class="st0" d="M262.9,11.7h-214c-21.8,0-39.5,17.7-39.5,39.5v214c0,21.8,17.7,39.5,39.5,39.5h105.6l0.2-104.7h-27.2
		c-3.5,0-6.4-2.9-6.4-6.4l-0.1-33.8c0-3.6,2.9-6.4,6.4-6.4h27.2v-32.6c0-37.9,23.1-58.5,56.9-58.5h27.7c3.5,0,6.4,2.9,6.4,6.4v28.5
		c0,3.5-2.9,6.4-6.4,6.4h-17c-18.4,0-21.9,8.7-21.9,21.5v28.2h40.4c3.8,0,6.8,3.4,6.4,7.2l-4,33.8c-0.4,3.2-3.1,5.7-6.4,5.7h-36.2
		l-0.2,104.7h62.6c21.8,0,39.5-17.7,39.5-39.5v-214C302.4,29.3,284.8,11.7,262.9,11.7L262.9,11.7z"/>
	<polygon class="st0" points="154.4,304.7 154.6,200 154.2,200 154.2,304.7 	"/>
</g>
</svg>
