<svg version="1.1" id="Layer_1" xmlns="http://www.w3.org/2000/svg" xmlns:xlink="http://www.w3.org/1999/xlink" x="0px" y="0px"
	 viewBox="0 0 311.8 311.8" style="enable-background:new 0 0 311.8 311.8;" xml:space="preserve">
<g>
	<path fill="#fff" d="M213.2,9.4H94.8C46.7,9.4,7.5,48.6,7.5,96.7v118.5c0,48.1,39.2,87.3,87.3,87.3h118.5
		c48.1,0,87.3-39.2,87.3-87.3V96.7C300.5,48.5,261.4,9.4,213.2,9.4L213.2,9.4z M271,215.1c0,31.9-25.9,57.8-57.8,57.8H94.8
		C62.9,272.9,37,247,37,215.1V96.7c0-31.9,25.9-57.8,57.8-57.8h118.5c31.9,0,57.8,25.9,57.8,57.8L271,215.1L271,215.1z"/>
	<path fill="#fff" d="M154,80.1c-41.8,0-75.8,34-75.8,75.8s34,75.8,75.8,75.8s75.8-34,75.8-75.8S195.8,80.1,154,80.1L154,80.1z
		 M154,202.2c-25.6,0-46.3-20.7-46.3-46.3s20.7-46.3,46.3-46.3s46.3,20.7,46.3,46.3S179.6,202.2,154,202.2L154,202.2z"/>
</g>
</svg>
