<?xml version="1.0" encoding="utf-8"?>
<!-- Generator: Adobe Illustrator 21.0.2, SVG Export Plug-In . SVG Version: 6.00 Build 0)  -->
<svg version="1.1" id="Layer_1" xmlns="http://www.w3.org/2000/svg" xmlns:xlink="http://www.w3.org/1999/xlink" x="0px" y="0px"
	 viewBox="0 0 512 512" style="enable-background:new 0 0 512 512;" xml:space="preserve">
<style type="text/css">
	.st0{fill:#404040;}
	.st1{fill:#FFFFFF;}
</style>
<circle class="st0" cx="256" cy="256" r="256"/>
<g>
	<path class="st1" d="M363,109.5H149c-21.8,0-39.5,17.7-39.5,39.5V363c0,21.8,17.7,39.5,39.5,39.5h105.6l0.2-104.7h-27.2
		c-3.5,0-6.4-2.9-6.4-6.4l-0.1-33.8c0-3.6,2.9-6.4,6.4-6.4h27.2v-32.6c0-37.9,23.1-58.5,56.9-58.5h27.7c3.5,0,6.4,2.9,6.4,6.4V195
		c0,3.5-2.9,6.4-6.4,6.4l-17,0c-18.4,0-21.9,8.7-21.9,21.5v28.2h40.4c3.8,0,6.8,3.4,6.4,7.2l-4,33.8c-0.4,3.2-3.1,5.7-6.4,5.7h-36.2
		l-0.2,104.7H363c21.8,0,39.5-17.7,39.5-39.5V149C402.5,127.1,384.9,109.5,363,109.5L363,109.5z"/>
	<polygon class="st1" points="254.5,402.5 254.7,297.8 254.3,297.8 254.3,402.5 	"/>
</g>
</svg>
